<svg width="209" height="54" viewBox="0 0 209 54" fill="none" xmlns="http://www.w3.org/2000/svg">
<path d="M48.6759 18.7106C48.5309 18.5237 48.3439 18.3726 48.1295 18.2692C47.9154 18.1658 47.6802 18.113 47.4419 18.1148H45.2515V10.0408C45.2527 9.6329 45.0915 9.2409 44.8027 8.9499C44.5138 8.659 44.1209 8.4924 43.709 8.4864H38.5802V5.5914C38.5802 5.1798 38.4156 4.785 38.1221 4.4936C37.8286 4.2022 37.4303 4.038 37.0146 4.037H31.905V1.5544C31.905 1.1428 31.7404 0.748 31.4469 0.4566C31.1535 0.1652 30.7551 0.001 30.3394 0H23.6642C23.2489 0.001 22.8506 0.1652 22.5571 0.4566C22.2637 0.748 22.0986 1.1428 22.0986 1.5544V4.037H16.9891C16.5772 4.043 16.1843 4.2096 15.8958 4.5005C15.607 4.7915 15.4458 5.1834 15.4466 5.5914V8.4788H10.314C10.1084 8.4793 9.90488 8.5199 9.71518 8.5983C9.52538 8.6766 9.35308 8.7913 9.20808 8.9356C9.06298 9.08 8.94818 9.2512 8.86988 9.4395C8.79168 9.6278 8.75168 9.8296 8.75218 10.0332V18.1148H6.56188C6.32578 18.1153 6.09278 18.1688 5.88048 18.2711C5.66818 18.3734 5.48208 18.522 5.33588 18.7056C5.18978 18.8893 5.08738 19.1034 5.03668 19.3317C4.98588 19.5601 4.98788 19.7969 5.04248 20.0244C6.06438 24.1301 10.2138 42.8636 11.2704 47.0877C11.6759 48.7762 12.6458 50.2791 14.0228 51.3527C15.4003 52.4259 17.1032 53.0064 18.8555 52.9999H35.1289C36.8812 53.0087 38.5848 52.4308 39.9635 51.3595C41.3417 50.2882 42.3138 48.7869 42.7218 47.0991C43.7669 42.898 47.9201 24.1836 48.9535 20.0397C49.011 19.8112 49.0152 19.5728 48.9659 19.3425C48.9165 19.1122 48.8147 18.8961 48.6682 18.7106H48.6759ZM42.1203 11.5953V18.1148H41.2217C40.9225 18.1124 40.629 18.1964 40.3768 18.3564C40.125 18.5165 39.9257 18.7457 39.8027 19.0161C39.4926 19.6774 39.0858 20.2899 38.5956 20.8341V11.5953H42.1203ZM35.4374 7.142V23.2555C34.3156 23.8536 33.1259 24.318 31.8935 24.6381V7.142H35.4374ZM28.7738 3.1051V25.188C28.1903 25.2415 27.6003 25.2682 27.0038 25.2682C26.4022 25.2682 25.8122 25.2415 25.2299 25.188V3.1051H28.7738ZM22.0986 7.142V24.6381C20.8661 24.318 19.6765 23.8536 18.5547 23.2555V7.142H22.0986ZM11.8795 11.5953H15.4273V20.8341C14.9399 20.2894 14.5361 19.6769 14.228 19.0161C14.1054 18.7457 13.906 18.5165 13.6538 18.3564C13.402 18.1964 13.1085 18.1124 12.8089 18.1148H11.8795V11.5953ZM39.6947 46.3506C39.4552 47.3665 38.8729 48.2709 38.0442 48.9144C37.2155 49.5584 36.1897 49.9029 35.1366 49.891H18.8555C17.8024 49.9029 16.777 49.5584 15.9479 48.9144C15.1192 48.2709 14.5369 47.3665 14.2974 46.3506C13.2562 42.1685 9.41938 24.8672 8.54008 21.216H11.8487C14.4131 25.5318 20.3324 28.3695 26.996 28.3695C33.6596 28.3695 39.5751 25.5318 42.1395 21.216H45.4636C44.5767 24.9016 40.7397 42.2219 39.7062 46.3506H39.6947Z" fill="#83C76F"/>
<path d="M27.0037 33.9534C25.8765 33.9504 24.774 34.2788 23.8354 34.8968C22.8968 35.5147 22.1641 36.3947 21.7306 37.4251C21.2972 38.4556 21.1823 39.5903 21.4001 40.6856C21.6184 41.781 22.1594 42.7874 22.9554 43.578C23.7513 44.3682 24.7663 44.9071 25.8715 45.1259C26.9767 45.3447 28.1227 45.234 29.1643 44.8074C30.2059 44.3811 31.0967 43.6582 31.7229 42.7301C32.3496 41.802 32.6839 40.7108 32.6839 39.5945C32.6839 38.1011 32.0862 36.6685 31.0211 35.611C29.9564 34.5534 28.5118 33.9576 27.0037 33.9534ZM27.0037 42.1305C26.497 42.132 26.001 41.9846 25.5792 41.7069C25.1569 41.4289 24.8276 41.0336 24.6328 40.5703C24.4377 40.107 24.386 39.5968 24.4836 39.1044C24.5816 38.6121 24.8249 38.1596 25.1827 37.804C25.5406 37.4484 25.9968 37.2063 26.4939 37.1077C26.9906 37.0092 27.5057 37.0592 27.9743 37.251C28.4424 37.4427 28.8427 37.7677 29.1246 38.1848C29.4061 38.6018 29.5565 39.0926 29.5565 39.5945C29.5565 40.2659 29.2881 40.9094 28.8095 41.3849C28.331 41.8604 27.6816 42.1285 27.0037 42.1305Z" fill="#83C76F"/>
<path d="M73.4043 38.9902C73.4043 40.2188 73.1755 41.2967 72.7178 42.2241C72.2601 43.1515 71.6398 43.9284 70.8569 44.5547C70.0741 45.1689 69.1587 45.6326 68.1108 45.9458C67.063 46.259 65.9429 46.4155 64.7505 46.4155C63.9435 46.4155 63.1908 46.3493 62.4922 46.2168C61.8057 46.0843 61.1974 45.9277 60.6675 45.7471C60.1375 45.5544 59.6919 45.3556 59.3306 45.1509C58.9813 44.9461 58.7284 44.7655 58.5718 44.6089C58.4152 44.4523 58.3008 44.2295 58.2285 43.9404C58.1683 43.6393 58.1382 43.2118 58.1382 42.6577C58.1382 42.2843 58.1502 41.9712 58.1743 41.7183C58.1984 41.4653 58.2345 41.2606 58.2827 41.104C58.3429 40.9474 58.4152 40.839 58.4995 40.7788C58.5959 40.7065 58.7043 40.6704 58.8247 40.6704C58.9933 40.6704 59.2282 40.7728 59.5293 40.9775C59.8424 41.1702 60.2399 41.387 60.7217 41.6279C61.2035 41.8688 61.7756 42.0916 62.438 42.2964C63.1125 42.4891 63.8893 42.5854 64.7686 42.5854C65.3467 42.5854 65.8646 42.5192 66.3223 42.3867C66.7799 42.2422 67.1654 42.0435 67.4785 41.7905C67.8037 41.5376 68.0506 41.2244 68.2192 40.8511C68.3879 40.4777 68.4722 40.0622 68.4722 39.6045C68.4722 39.0745 68.3276 38.6229 68.0386 38.2495C67.7495 37.8641 67.3701 37.5269 66.9004 37.2378C66.4427 36.9367 65.9188 36.6597 65.3286 36.4067C64.7384 36.1418 64.1302 35.8647 63.5039 35.5757C62.8776 35.2866 62.2694 34.9614 61.6792 34.6001C61.089 34.2267 60.5591 33.7871 60.0894 33.2812C59.6317 32.7633 59.2583 32.1551 58.9692 31.4565C58.6802 30.758 58.5356 29.9209 58.5356 28.9453C58.5356 27.8252 58.7404 26.8436 59.1499 26.0005C59.5715 25.1453 60.1315 24.4408 60.8301 23.8867C61.5407 23.3206 62.3717 22.8991 63.3232 22.6221C64.2868 22.3451 65.3045 22.2065 66.3765 22.2065C66.9305 22.2065 67.4845 22.2487 68.0386 22.333C68.5926 22.4173 69.1105 22.5317 69.5923 22.6763C70.0741 22.8208 70.5016 22.9834 70.875 23.1641C71.2484 23.3447 71.4953 23.4953 71.6157 23.6157C71.7362 23.7362 71.8145 23.8385 71.8506 23.9229C71.8988 24.0072 71.9349 24.1216 71.959 24.2661C71.9951 24.3986 72.0192 24.5732 72.0312 24.79C72.0433 24.9948 72.0493 25.2537 72.0493 25.5669C72.0493 25.9162 72.0373 26.2113 72.0132 26.4521C72.0011 26.693 71.971 26.8918 71.9229 27.0483C71.8867 27.2049 71.8265 27.3193 71.7422 27.3916C71.6699 27.4639 71.5675 27.5 71.4351 27.5C71.3026 27.5 71.0918 27.4157 70.8027 27.2471C70.5137 27.0785 70.1584 26.8978 69.7368 26.7051C69.3153 26.5003 68.8275 26.3197 68.2734 26.1631C67.7194 25.9945 67.1112 25.9102 66.4487 25.9102C65.9308 25.9102 65.4792 25.9764 65.0938 26.1089C64.7083 26.2293 64.3831 26.404 64.1182 26.6328C63.8652 26.8496 63.6725 27.1146 63.54 27.4277C63.4196 27.7409 63.3594 28.0721 63.3594 28.4214C63.3594 28.9393 63.4979 29.391 63.7749 29.7764C64.064 30.1497 64.4434 30.487 64.9131 30.7881C65.3949 31.0771 65.9368 31.3542 66.5391 31.6191C67.1413 31.8721 67.7555 32.1431 68.3818 32.4321C69.0081 32.7212 69.6224 33.0524 70.2246 33.4258C70.8268 33.7871 71.3628 34.2267 71.8325 34.7446C72.3022 35.2505 72.6816 35.8527 72.9707 36.5513C73.2598 37.2378 73.4043 38.0508 73.4043 38.9902ZM86.3037 43.7959C86.3037 44.3258 86.2676 44.7354 86.1953 45.0244C86.1351 45.3014 86.0508 45.5002 85.9424 45.6206C85.834 45.729 85.6714 45.8314 85.4546 45.9277C85.2498 46.012 85.0029 46.0843 84.7139 46.1445C84.4368 46.2168 84.1297 46.271 83.7925 46.3071C83.4673 46.3433 83.1361 46.3613 82.7988 46.3613C81.8955 46.3613 81.1126 46.2469 80.4502 46.0181C79.7878 45.7892 79.2397 45.4399 78.8062 44.9702C78.3726 44.4884 78.0534 43.8862 77.8486 43.1636C77.6439 42.4409 77.5415 41.5858 77.5415 40.5981V32.3418H75.6084C75.3796 32.3418 75.2049 32.2033 75.0845 31.9263C74.964 31.6372 74.9038 31.1615 74.9038 30.499C74.9038 30.1497 74.9159 29.8547 74.9399 29.6138C74.9761 29.3729 75.0243 29.1862 75.0845 29.0537C75.1447 28.9092 75.217 28.8068 75.3013 28.7466C75.3976 28.6864 75.506 28.6562 75.6265 28.6562H77.5415V25.061C77.5415 24.9406 77.5716 24.8322 77.6318 24.7358C77.7041 24.6395 77.8245 24.5612 77.9932 24.501C78.1738 24.4287 78.4087 24.3805 78.6978 24.3564C78.9989 24.3203 79.3662 24.3022 79.7998 24.3022C80.2454 24.3022 80.6128 24.3203 80.9019 24.3564C81.203 24.3805 81.4378 24.4287 81.6064 24.501C81.7751 24.5612 81.8955 24.6395 81.9678 24.7358C82.04 24.8322 82.0762 24.9406 82.0762 25.061V28.6562H85.5811C85.7015 28.6562 85.8039 28.6864 85.8882 28.7466C85.9845 28.8068 86.0628 28.9092 86.123 29.0537C86.1833 29.1862 86.2254 29.3729 86.2495 29.6138C86.2856 29.8547 86.3037 30.1497 86.3037 30.499C86.3037 31.1615 86.2435 31.6372 86.123 31.9263C86.0026 32.2033 85.828 32.3418 85.5991 32.3418H82.0762V39.9116C82.0762 40.7909 82.2147 41.4533 82.4917 41.8989C82.7687 42.3325 83.2625 42.5493 83.9731 42.5493C84.214 42.5493 84.4308 42.5312 84.6235 42.4951C84.8162 42.4469 84.9849 42.3988 85.1294 42.3506C85.286 42.2904 85.4124 42.2422 85.5088 42.2061C85.6172 42.1579 85.7135 42.1338 85.7979 42.1338C85.8701 42.1338 85.9364 42.1579 85.9966 42.2061C86.0688 42.2422 86.123 42.3265 86.1592 42.459C86.1953 42.5794 86.2254 42.748 86.2495 42.9648C86.2856 43.1816 86.3037 43.4587 86.3037 43.7959ZM105.526 37.1655C105.526 38.5386 105.346 39.7912 104.984 40.9233C104.623 42.0555 104.075 43.0311 103.34 43.8501C102.606 44.6691 101.684 45.3014 100.576 45.7471C99.468 46.1927 98.173 46.4155 96.692 46.4155C95.259 46.4155 94.012 46.2168 92.952 45.8193C91.892 45.4219 91.013 44.8438 90.3145 44.085C89.6159 43.3262 89.098 42.3927 88.7607 41.2847C88.4235 40.1766 88.2549 38.9119 88.2549 37.4907C88.2549 36.1177 88.4355 34.8651 88.7969 33.7329C89.1702 32.5887 89.7243 31.6131 90.459 30.8062C91.194 29.9871 92.109 29.3548 93.205 28.9092C94.313 28.4635 95.608 28.2407 97.089 28.2407C98.535 28.2407 99.787 28.4395 100.847 28.8369C101.907 29.2223 102.78 29.7944 103.467 30.5532C104.165 31.312 104.683 32.2454 105.021 33.3535C105.358 34.4616 105.526 35.7323 105.526 37.1655ZM100.847 37.3462C100.847 36.5513 100.781 35.8226 100.648 35.1602C100.528 34.4857 100.317 33.9015 100.016 33.4077C99.715 32.9139 99.312 32.5285 98.806 32.2515C98.312 31.9744 97.686 31.8359 96.927 31.8359C96.252 31.8359 95.662 31.9624 95.156 32.2153C94.65 32.4562 94.235 32.8175 93.91 33.2993C93.584 33.769 93.338 34.3411 93.169 35.0156C93.012 35.6781 92.934 36.4368 92.934 37.292C92.934 38.0869 93 38.8216 93.133 39.4961C93.265 40.1585 93.476 40.7367 93.765 41.2305C94.066 41.7243 94.47 42.1097 94.976 42.3867C95.481 42.6517 96.108 42.7842 96.854 42.7842C97.541 42.7842 98.137 42.6637 98.643 42.4229C99.149 42.1699 99.564 41.8086 99.89 41.3389C100.215 40.8691 100.456 40.3031 100.612 39.6406C100.769 38.9661 100.847 38.2013 100.847 37.3462ZM119.492 30.77C119.492 31.2036 119.48 31.5589 119.456 31.8359C119.431 32.113 119.395 32.3298 119.347 32.4863C119.299 32.6429 119.233 32.7513 119.148 32.8115C119.076 32.8717 118.98 32.9019 118.859 32.9019C118.763 32.9019 118.655 32.8838 118.534 32.8477C118.414 32.7995 118.275 32.7513 118.119 32.7031C117.974 32.6549 117.812 32.6128 117.631 32.5767C117.45 32.5285 117.251 32.5044 117.035 32.5044C116.782 32.5044 116.529 32.5586 116.276 32.667C116.023 32.7633 115.758 32.9199 115.481 33.1367C115.216 33.3535 114.933 33.6426 114.632 34.0039C114.343 34.3652 114.03 34.8109 113.692 35.3408V45.3857C113.692 45.5062 113.656 45.6146 113.584 45.7109C113.512 45.7952 113.385 45.8675 113.205 45.9277C113.036 45.988 112.807 46.0301 112.518 46.0542C112.229 46.0903 111.862 46.1084 111.416 46.1084C110.97 46.1084 110.603 46.0903 110.314 46.0542C110.025 46.0301 109.79 45.988 109.609 45.9277C109.441 45.8675 109.32 45.7952 109.248 45.7109C109.176 45.6146 109.14 45.5062 109.14 45.3857V29.2705C109.14 29.1501 109.17 29.0477 109.23 28.9634C109.29 28.867 109.399 28.7887 109.555 28.7285C109.712 28.6683 109.91 28.6261 110.151 28.6021C110.404 28.5659 110.717 28.5479 111.091 28.5479C111.476 28.5479 111.795 28.5659 112.048 28.6021C112.301 28.6261 112.494 28.6683 112.626 28.7285C112.771 28.7887 112.873 28.867 112.934 28.9634C112.994 29.0477 113.024 29.1501 113.024 29.2705V31.2759C113.445 30.6737 113.843 30.1799 114.216 29.7944C114.59 29.397 114.945 29.0838 115.282 28.855C115.619 28.6261 115.957 28.4696 116.294 28.3853C116.631 28.2889 116.968 28.2407 117.306 28.2407C117.462 28.2407 117.631 28.2528 117.812 28.2769C117.992 28.2889 118.179 28.319 118.372 28.3672C118.564 28.4033 118.733 28.4515 118.877 28.5117C119.022 28.5599 119.124 28.6141 119.185 28.6743C119.257 28.7345 119.305 28.8008 119.329 28.873C119.365 28.9453 119.395 29.0477 119.419 29.1802C119.444 29.3006 119.462 29.4873 119.474 29.7402C119.486 29.9932 119.492 30.3364 119.492 30.77ZM136.745 36.8584C136.745 37.4124 136.619 37.8219 136.366 38.0869C136.125 38.3519 135.788 38.4844 135.354 38.4844H125.544C125.544 39.1709 125.622 39.7972 125.779 40.3633C125.947 40.9173 126.206 41.3931 126.556 41.7905C126.917 42.1759 127.375 42.471 127.929 42.6758C128.495 42.8805 129.169 42.9829 129.952 42.9829C130.747 42.9829 131.446 42.9287 132.048 42.8203C132.65 42.6999 133.168 42.5734 133.602 42.4409C134.047 42.2964 134.415 42.1699 134.704 42.0615C134.993 41.9411 135.228 41.8809 135.408 41.8809C135.517 41.8809 135.607 41.9049 135.679 41.9531C135.751 41.9893 135.812 42.0615 135.86 42.1699C135.908 42.2783 135.938 42.4349 135.95 42.6396C135.974 42.8324 135.986 43.0793 135.986 43.3804C135.986 43.6453 135.98 43.8742 135.968 44.0669C135.956 44.2476 135.938 44.4041 135.914 44.5366C135.89 44.6691 135.854 44.7835 135.806 44.8799C135.757 44.9642 135.691 45.0485 135.607 45.1328C135.535 45.2171 135.324 45.3315 134.975 45.4761C134.625 45.6206 134.18 45.7651 133.638 45.9097C133.096 46.0422 132.475 46.1566 131.777 46.2529C131.078 46.3613 130.332 46.4155 129.537 46.4155C128.103 46.4155 126.845 46.2349 125.761 45.8735C124.689 45.5122 123.792 44.9642 123.069 44.2295C122.346 43.4948 121.804 42.5674 121.443 41.4473C121.094 40.3271 120.919 39.0143 120.919 37.5088C120.919 36.0755 121.106 34.7868 121.479 33.6426C121.852 32.4863 122.394 31.5107 123.105 30.7158C123.816 29.9089 124.677 29.2946 125.688 28.873C126.712 28.4515 127.862 28.2407 129.139 28.2407C130.488 28.2407 131.638 28.4395 132.59 28.8369C133.553 29.2344 134.342 29.7884 134.957 30.499C135.571 31.1976 136.022 32.0286 136.312 32.9922C136.601 33.9557 136.745 35.0036 136.745 36.1357V36.8584ZM132.337 35.5576C132.373 34.2809 132.114 33.2812 131.56 32.5586C131.018 31.8239 130.175 31.4565 129.031 31.4565C128.453 31.4565 127.947 31.5649 127.513 31.7817C127.092 31.9985 126.736 32.2936 126.447 32.667C126.17 33.0283 125.953 33.4619 125.797 33.9678C125.652 34.4616 125.568 34.9915 125.544 35.5576H132.337ZM149.934 23.1279C149.934 23.4772 149.922 23.7603 149.897 23.9771C149.873 24.1818 149.837 24.3444 149.789 24.4648C149.741 24.5732 149.687 24.6515 149.626 24.6997C149.566 24.7358 149.5 24.7539 149.428 24.7539C149.343 24.7539 149.247 24.7358 149.139 24.6997C149.042 24.6515 148.916 24.6034 148.759 24.5552C148.615 24.507 148.44 24.4648 148.235 24.4287C148.031 24.3805 147.79 24.3564 147.513 24.3564C147.188 24.3564 146.904 24.4106 146.664 24.519C146.435 24.6154 146.242 24.778 146.085 25.0068C145.929 25.2236 145.814 25.5127 145.742 25.874C145.67 26.2233 145.634 26.6569 145.634 27.1748V28.6562H148.579C148.687 28.6562 148.783 28.6864 148.868 28.7466C148.964 28.8068 149.042 28.9092 149.103 29.0537C149.163 29.1862 149.205 29.3729 149.229 29.6138C149.265 29.8547 149.283 30.1497 149.283 30.499C149.283 31.1615 149.223 31.6372 149.103 31.9263C148.982 32.2033 148.807 32.3418 148.579 32.3418H145.634V45.3857C145.634 45.5062 145.598 45.6146 145.525 45.7109C145.453 45.7952 145.333 45.8675 145.164 45.9277C144.995 45.988 144.761 46.0301 144.459 46.0542C144.158 46.0903 143.791 46.1084 143.357 46.1084C142.924 46.1084 142.556 46.0903 142.255 46.0542C141.966 46.0301 141.731 45.988 141.551 45.9277C141.382 45.8675 141.262 45.7952 141.189 45.7109C141.129 45.6146 141.099 45.5062 141.099 45.3857V32.3418H139.076C138.847 32.3418 138.672 32.2033 138.552 31.9263C138.443 31.6372 138.389 31.1615 138.389 30.499C138.389 30.1497 138.401 29.8547 138.425 29.6138C138.461 29.3729 138.504 29.1862 138.552 29.0537C138.612 28.9092 138.684 28.8068 138.769 28.7466C138.865 28.6864 138.973 28.6562 139.094 28.6562H141.099V27.3013C141.099 26.2052 141.208 25.2477 141.424 24.4287C141.641 23.5977 141.978 22.9111 142.436 22.3691C142.906 21.8151 143.496 21.3996 144.207 21.1226C144.929 20.8455 145.778 20.707 146.754 20.707C147.224 20.707 147.669 20.7492 148.091 20.8335C148.512 20.9058 148.844 20.9901 149.084 21.0864C149.325 21.1707 149.488 21.255 149.572 21.3394C149.657 21.4116 149.723 21.526 149.771 21.6826C149.831 21.8271 149.873 22.0199 149.897 22.2607C149.922 22.4896 149.934 22.7786 149.934 23.1279ZM162.273 30.77C162.273 31.2036 162.261 31.5589 162.237 31.8359C162.213 32.113 162.177 32.3298 162.128 32.4863C162.08 32.6429 162.014 32.7513 161.93 32.8115C161.857 32.8717 161.761 32.9019 161.641 32.9019C161.544 32.9019 161.436 32.8838 161.315 32.8477C161.195 32.7995 161.056 32.7513 160.9 32.7031C160.755 32.6549 160.593 32.6128 160.412 32.5767C160.231 32.5285 160.033 32.5044 159.816 32.5044C159.563 32.5044 159.31 32.5586 159.057 32.667C158.804 32.7633 158.539 32.9199 158.262 33.1367C157.997 33.3535 157.714 33.6426 157.413 34.0039C157.124 34.3652 156.811 34.8109 156.474 35.3408V45.3857C156.474 45.5062 156.438 45.6146 156.365 45.7109C156.293 45.7952 156.167 45.8675 155.986 45.9277C155.817 45.988 155.588 46.0301 155.299 46.0542C155.01 46.0903 154.643 46.1084 154.197 46.1084C153.752 46.1084 153.384 46.0903 153.095 46.0542C152.806 46.0301 152.571 45.988 152.391 45.9277C152.222 45.8675 152.102 45.7952 152.029 45.7109C151.957 45.6146 151.921 45.5062 151.921 45.3857V29.2705C151.921 29.1501 151.951 29.0477 152.011 28.9634C152.071 28.867 152.18 28.7887 152.336 28.7285C152.493 28.6683 152.692 28.6261 152.933 28.6021C153.186 28.5659 153.499 28.5479 153.872 28.5479C154.257 28.5479 154.577 28.5659 154.83 28.6021C155.083 28.6261 155.275 28.6683 155.408 28.7285C155.552 28.7887 155.655 28.867 155.715 28.9634C155.775 29.0477 155.805 29.1501 155.805 29.2705V31.2759C156.227 30.6737 156.624 30.1799 156.998 29.7944C157.371 29.397 157.726 29.0838 158.063 28.855C158.401 28.6261 158.738 28.4696 159.075 28.3853C159.412 28.2889 159.75 28.2407 160.087 28.2407C160.243 28.2407 160.412 28.2528 160.593 28.2769C160.773 28.2889 160.96 28.319 161.153 28.3672C161.346 28.4033 161.514 28.4515 161.659 28.5117C161.803 28.5599 161.906 28.6141 161.966 28.6743C162.038 28.7345 162.086 28.8008 162.11 28.873C162.146 28.9453 162.177 29.0477 162.201 29.1802C162.225 29.3006 162.243 29.4873 162.255 29.7402C162.267 29.9932 162.273 30.3364 162.273 30.77ZM169.626 45.3857C169.626 45.5062 169.59 45.6146 169.518 45.7109C169.445 45.7952 169.319 45.8675 169.138 45.9277C168.97 45.988 168.741 46.0301 168.452 46.0542C168.163 46.0903 167.795 46.1084 167.35 46.1084C166.904 46.1084 166.537 46.0903 166.248 46.0542C165.958 46.0301 165.724 45.988 165.543 45.9277C165.374 45.8675 165.254 45.7952 165.182 45.7109C165.109 45.6146 165.073 45.5062 165.073 45.3857V29.3066C165.073 29.1862 165.109 29.0838 165.182 28.9995C165.254 28.9032 165.374 28.8249 165.543 28.7646C165.724 28.6924 165.958 28.6382 166.248 28.6021C166.537 28.5659 166.904 28.5479 167.35 28.5479C167.795 28.5479 168.163 28.5659 168.452 28.6021C168.741 28.6382 168.97 28.6924 169.138 28.7646C169.319 28.8249 169.445 28.9032 169.518 28.9995C169.59 29.0838 169.626 29.1862 169.626 29.3066V45.3857ZM169.969 23.8145C169.969 24.7298 169.783 25.3621 169.409 25.7114C169.036 26.0607 168.343 26.2354 167.332 26.2354C166.308 26.2354 165.615 26.0667 165.254 25.7295C164.905 25.3923 164.73 24.784 164.73 23.9048C164.73 22.9894 164.911 22.3571 165.272 22.0078C165.645 21.6465 166.344 21.4658 167.368 21.4658C168.379 21.4658 169.066 21.6405 169.427 21.9897C169.789 22.327 169.969 22.9352 169.969 23.8145ZM189.065 36.8584C189.065 37.4124 188.939 37.8219 188.686 38.0869C188.445 38.3519 188.108 38.4844 187.674 38.4844H177.864C177.864 39.1709 177.943 39.7972 178.099 40.3633C178.268 40.9173 178.527 41.3931 178.876 41.7905C179.237 42.1759 179.695 42.471 180.249 42.6758C180.815 42.8805 181.49 42.9829 182.272 42.9829C183.067 42.9829 183.766 42.9287 184.368 42.8203C184.97 42.6999 185.488 42.5734 185.922 42.4409C186.368 42.2964 186.735 42.1699 187.024 42.0615C187.313 41.9411 187.548 41.8809 187.729 41.8809C187.837 41.8809 187.927 41.9049 188 41.9531C188.072 41.9893 188.132 42.0615 188.18 42.1699C188.228 42.2783 188.258 42.4349 188.271 42.6396C188.295 42.8324 188.307 43.0793 188.307 43.3804C188.307 43.6453 188.301 43.8742 188.289 44.0669C188.277 44.2476 188.258 44.4041 188.234 44.5366C188.21 44.6691 188.174 44.7835 188.126 44.8799C188.078 44.9642 188.012 45.0485 187.927 45.1328C187.855 45.2171 187.644 45.3315 187.295 45.4761C186.946 45.6206 186.5 45.7651 185.958 45.9097C185.416 46.0422 184.796 46.1566 184.097 46.2529C183.399 46.3613 182.652 46.4155 181.857 46.4155C180.424 46.4155 179.165 46.2349 178.081 45.8735C177.009 45.5122 176.112 44.9642 175.389 44.2295C174.667 43.4948 174.125 42.5674 173.763 41.4473C173.414 40.3271 173.239 39.0143 173.239 37.5088C173.239 36.0755 173.426 34.7868 173.799 33.6426C174.173 32.4863 174.715 31.5107 175.425 30.7158C176.136 29.9089 176.997 29.2946 178.009 28.873C179.033 28.4515 180.183 28.2407 181.459 28.2407C182.808 28.2407 183.959 28.4395 184.91 28.8369C185.874 29.2344 186.663 29.7884 187.277 30.499C187.891 31.1976 188.343 32.0286 188.632 32.9922C188.921 33.9557 189.065 35.0036 189.065 36.1357V36.8584ZM184.657 35.5576C184.693 34.2809 184.434 33.2812 183.88 32.5586C183.338 31.8239 182.495 31.4565 181.351 31.4565C180.773 31.4565 180.267 31.5649 179.833 31.7817C179.412 31.9985 179.057 32.2936 178.768 32.667C178.491 33.0283 178.274 33.4619 178.117 33.9678C177.973 34.4616 177.888 34.9915 177.864 35.5576H184.657ZM204.169 40.833C204.169 41.7484 203.994 42.5553 203.645 43.2539C203.308 43.9525 202.826 44.5366 202.2 45.0063C201.573 45.4761 200.833 45.8254 199.978 46.0542C199.122 46.2951 198.195 46.4155 197.195 46.4155C196.593 46.4155 196.015 46.3674 195.461 46.271C194.919 46.1867 194.431 46.0783 193.998 45.9458C193.564 45.8013 193.203 45.6567 192.914 45.5122C192.625 45.3677 192.414 45.2352 192.281 45.1147C192.149 44.9823 192.046 44.7835 191.974 44.5186C191.902 44.2415 191.866 43.8381 191.866 43.3081C191.866 42.9588 191.878 42.6818 191.902 42.4771C191.926 42.2603 191.962 42.0916 192.01 41.9712C192.058 41.8387 192.119 41.7544 192.191 41.7183C192.263 41.6701 192.354 41.646 192.462 41.646C192.594 41.646 192.787 41.7243 193.04 41.8809C193.305 42.0254 193.63 42.188 194.016 42.3687C194.401 42.5493 194.847 42.7179 195.353 42.8745C195.87 43.0311 196.455 43.1094 197.105 43.1094C197.514 43.1094 197.876 43.0672 198.189 42.9829C198.514 42.8986 198.791 42.7782 199.02 42.6216C199.261 42.465 199.442 42.2663 199.562 42.0254C199.682 41.7845 199.743 41.5075 199.743 41.1943C199.743 40.833 199.628 40.5259 199.399 40.2729C199.183 40.008 198.888 39.7791 198.514 39.5864C198.153 39.3937 197.737 39.2131 197.268 39.0444C196.81 38.8758 196.334 38.6891 195.84 38.4844C195.359 38.2796 194.883 38.0448 194.413 37.7798C193.955 37.5148 193.54 37.1896 193.167 36.8042C192.805 36.4188 192.51 35.9551 192.281 35.4131C192.064 34.8711 191.956 34.2207 191.956 33.4619C191.956 32.6911 192.107 31.9865 192.408 31.3481C192.709 30.6978 193.142 30.1437 193.708 29.686C194.275 29.2284 194.961 28.873 195.768 28.6201C196.587 28.3672 197.502 28.2407 198.514 28.2407C199.02 28.2407 199.508 28.2769 199.978 28.3491C200.459 28.4214 200.893 28.5117 201.278 28.6201C201.664 28.7285 201.989 28.849 202.254 28.9814C202.519 29.1019 202.706 29.2103 202.814 29.3066C202.934 29.391 203.019 29.4813 203.067 29.5776C203.115 29.6619 203.151 29.7703 203.175 29.9028C203.199 30.0233 203.217 30.1799 203.229 30.3726C203.254 30.5532 203.266 30.7821 203.266 31.0591C203.266 31.3843 203.254 31.6493 203.229 31.854C203.217 32.0588 203.187 32.2214 203.139 32.3418C203.103 32.4622 203.049 32.5465 202.977 32.5947C202.904 32.6309 202.82 32.6489 202.724 32.6489C202.615 32.6489 202.447 32.5887 202.218 32.4683C201.989 32.3358 201.7 32.1973 201.351 32.0527C201.013 31.9082 200.616 31.7757 200.158 31.6553C199.713 31.5228 199.201 31.4565 198.623 31.4565C198.213 31.4565 197.858 31.4987 197.557 31.583C197.256 31.6673 197.009 31.7878 196.816 31.9443C196.623 32.1009 196.479 32.2876 196.382 32.5044C196.286 32.7091 196.238 32.932 196.238 33.1729C196.238 33.5462 196.352 33.8594 196.581 34.1123C196.81 34.3652 197.111 34.5881 197.484 34.7808C197.858 34.9735 198.279 35.1541 198.749 35.3228C199.231 35.4914 199.713 35.6781 200.194 35.8828C200.688 36.0755 201.17 36.3044 201.64 36.5693C202.121 36.8343 202.549 37.1595 202.922 37.5449C203.296 37.9303 203.597 38.394 203.826 38.936C204.055 39.466 204.169 40.0983 204.169 40.833Z" fill="#265983"/>
</svg>
